<svg id="svg" version="1.1" xmlns="http://www.w3.org/2000/svg" xmlns:xlink="http://www.w3.org/1999/xlink" width="400" height="417.14285714285717" viewBox="0, 0, 400,417.14285714285717"><g id="svgg"><path id="path0" d="M288.000 60.423 C 284.963 60.956,282.285 61.576,280.400 62.181 C 279.410 62.499,277.250 63.158,275.600 63.645 C 265.374 66.666,250.359 77.012,244.000 85.419 C 243.670 85.855,242.635 87.135,241.700 88.262 C 240.765 89.389,240.000 90.505,240.000 90.742 C 240.000 90.978,239.495 91.763,238.877 92.486 C 237.858 93.679,236.262 96.724,233.471 102.800 C 227.813 115.119,225.662 138.331,229.377 147.000 C 229.659 147.660,230.081 149.100,230.314 150.200 C 231.253 154.637,231.807 156.073,235.092 162.600 C 240.230 172.808,251.960 186.869,256.623 188.408 C 257.384 188.659,258.197 189.221,258.431 189.658 C 258.665 190.095,259.609 190.779,260.528 191.178 C 261.448 191.577,262.636 192.375,263.170 192.952 C 263.703 193.528,264.315 194.000,264.530 194.000 C 264.744 194.000,265.838 194.433,266.960 194.962 C 268.082 195.491,269.810 196.243,270.800 196.633 C 271.790 197.023,273.320 197.653,274.200 198.034 C 282.199 201.498,299.211 203.384,308.000 201.781 C 316.160 200.292,319.245 199.664,320.000 199.338 C 320.330 199.195,321.410 198.767,322.400 198.387 C 323.390 198.007,325.370 197.248,326.800 196.699 C 330.630 195.228,332.555 194.154,338.960 189.910 C 346.539 184.888,353.275 178.196,357.345 171.643 C 357.974 170.629,358.632 169.710,358.806 169.600 C 358.980 169.490,359.829 168.050,360.693 166.400 C 361.557 164.750,362.948 162.140,363.783 160.600 C 370.460 148.297,371.935 129.395,367.603 111.658 C 367.369 110.700,366.912 109.404,366.589 108.778 C 366.265 108.152,366.000 107.329,366.000 106.950 C 366.000 106.257,363.458 100.617,361.967 98.000 C 361.528 97.230,360.709 95.610,360.146 94.400 C 359.584 93.190,358.363 91.300,357.434 90.200 C 356.505 89.100,355.194 87.390,354.520 86.400 C 352.809 83.885,343.436 74.858,341.848 74.194 C 341.127 73.893,340.293 73.353,339.995 72.994 C 339.697 72.635,338.811 72.012,338.027 71.610 C 337.242 71.207,336.164 70.410,335.630 69.839 C 335.097 69.268,334.467 68.798,334.230 68.795 C 333.994 68.792,332.450 68.102,330.800 67.262 C 326.347 64.995,319.460 62.731,311.145 60.802 C 307.479 59.951,292.120 59.700,288.000 60.423 " stroke="none" fill="#0754f9" fill-rule="evenodd"></path><path id="path1" d="M126.000 77.563 C 124.350 77.720,122.720 77.978,122.378 78.137 C 122.036 78.296,120.056 78.789,117.978 79.234 C 111.851 80.546,111.526 80.641,108.600 81.976 C 103.852 84.143,102.690 84.739,100.000 86.380 C 98.570 87.253,96.410 88.522,95.200 89.199 C 92.544 90.685,90.953 91.826,89.329 93.410 C 88.657 94.064,86.267 96.375,84.016 98.544 C 81.675 100.800,79.347 103.472,78.577 104.786 C 77.836 106.049,76.682 107.670,76.011 108.388 C 75.340 109.106,74.686 110.116,74.556 110.632 C 74.427 111.148,73.708 112.432,72.960 113.484 C 72.212 114.536,71.600 115.632,71.600 115.918 C 71.600 116.204,71.262 117.105,70.849 117.919 C 67.830 123.875,67.243 125.475,65.441 132.648 C 63.976 138.478,63.575 154.934,64.779 159.800 C 64.997 160.680,65.459 162.660,65.805 164.200 C 66.736 168.333,69.142 175.158,70.238 176.770 C 70.764 177.545,71.491 179.083,71.854 180.189 C 72.515 182.207,74.606 185.706,76.301 187.631 C 76.800 188.197,77.804 189.637,78.531 190.831 C 82.243 196.917,96.534 208.355,104.000 211.215 C 104.770 211.510,106.045 212.150,106.833 212.638 C 107.621 213.126,108.881 213.717,109.633 213.951 C 110.385 214.185,112.260 214.809,113.800 215.338 C 115.340 215.866,117.590 216.428,118.800 216.585 C 120.010 216.742,121.810 217.143,122.800 217.476 C 124.015 217.885,126.873 218.144,131.600 218.274 C 139.620 218.495,147.227 219.468,153.000 221.011 C 155.200 221.599,157.654 222.238,158.453 222.431 C 161.055 223.061,172.989 229.379,176.010 231.726 C 177.620 232.977,179.115 234.000,179.333 234.000 C 179.860 234.000,189.511 243.766,190.994 245.800 C 191.635 246.680,192.535 247.760,192.993 248.200 C 194.526 249.671,196.894 253.852,199.902 260.400 C 202.572 266.212,203.169 267.856,205.055 274.600 C 205.363 275.700,205.975 281.280,206.415 287.000 C 207.535 301.534,208.426 307.285,210.354 312.400 C 210.976 314.050,211.615 316.105,211.773 316.967 C 211.932 317.829,212.645 319.449,213.359 320.567 C 214.073 321.685,215.513 324.220,216.561 326.200 C 217.608 328.180,218.866 330.250,219.355 330.800 C 219.845 331.350,220.761 332.610,221.391 333.600 C 223.058 336.220,232.855 345.833,235.556 347.499 C 236.130 347.853,237.230 348.718,238.000 349.420 C 238.770 350.123,240.268 351.020,241.329 351.415 C 242.391 351.809,243.651 352.423,244.129 352.779 C 245.675 353.931,252.120 356.768,255.000 357.564 C 256.540 357.991,258.700 358.643,259.800 359.014 C 263.332 360.206,264.089 360.345,270.689 361.011 C 277.562 361.706,282.134 361.497,289.200 360.166 C 290.850 359.855,292.878 359.600,293.708 359.600 C 295.390 359.600,299.241 358.329,303.265 356.447 C 304.730 355.761,306.080 355.194,306.265 355.186 C 306.449 355.179,307.320 354.825,308.200 354.400 C 309.080 353.975,309.997 353.621,310.238 353.614 C 310.479 353.606,311.019 353.220,311.438 352.756 C 311.857 352.291,313.500 351.285,315.088 350.520 C 316.677 349.755,318.665 348.441,319.506 347.600 C 320.347 346.759,322.467 345.000,324.217 343.690 C 327.758 341.042,328.698 340.090,331.220 336.600 C 332.174 335.280,333.159 334.020,333.408 333.800 C 335.031 332.368,337.955 327.668,340.253 322.800 C 340.825 321.590,341.523 320.330,341.806 320.000 C 342.089 319.670,342.504 318.770,342.729 318.000 C 342.953 317.230,343.531 315.610,344.013 314.400 C 345.343 311.061,346.046 308.523,346.619 305.000 C 346.905 303.240,347.423 300.727,347.770 299.416 C 348.970 294.874,347.954 277.147,346.325 274.217 C 346.085 273.786,345.662 272.526,345.384 271.417 C 345.106 270.307,344.433 268.218,343.887 266.773 C 343.342 265.329,342.766 263.556,342.608 262.835 C 342.320 261.527,341.199 259.492,338.321 255.054 C 337.485 253.764,336.800 252.540,336.800 252.333 C 336.800 252.126,336.249 251.381,335.576 250.678 C 334.904 249.975,334.018 248.770,333.610 248.000 C 332.643 246.179,319.729 233.200,318.884 233.200 C 318.708 233.200,317.221 232.372,315.582 231.361 C 307.500 226.376,297.666 222.259,292.288 221.608 C 290.480 221.390,288.280 221.029,287.400 220.808 C 286.520 220.587,282.650 220.301,278.800 220.173 C 272.083 219.950,262.653 218.777,261.163 217.980 C 260.772 217.771,260.062 217.600,259.586 217.600 C 256.850 217.600,242.419 211.483,239.800 209.213 C 239.360 208.831,238.668 208.401,238.262 208.258 C 236.630 207.679,229.180 201.861,226.739 199.260 C 223.137 195.420,216.800 187.408,216.800 186.693 C 216.800 186.513,216.379 185.911,215.864 185.356 C 213.396 182.694,208.213 169.288,206.757 161.800 C 206.586 160.920,206.272 159.390,206.058 158.400 C 205.845 157.410,205.551 152.730,205.406 148.000 C 205.238 142.526,204.941 138.746,204.588 137.600 C 204.283 136.610,203.653 134.000,203.187 131.800 C 202.722 129.600,201.274 125.065,199.970 121.722 C 198.667 118.379,197.600 115.553,197.600 115.442 C 197.600 115.331,197.015 114.410,196.300 113.394 C 195.585 112.379,194.640 110.956,194.200 110.232 C 191.297 105.453,188.683 102.212,184.668 98.409 C 183.385 97.194,181.097 94.993,179.583 93.518 C 178.069 92.043,176.238 90.536,175.515 90.169 C 174.792 89.802,173.337 88.888,172.282 88.138 C 170.525 86.890,169.026 86.127,161.108 82.457 C 152.475 78.454,137.926 76.426,126.000 77.563 " stroke="none" fill="#fbc307" fill-rule="evenodd"></path><path id="path2" d="M109.000 237.584 C 102.719 238.261,98.925 238.862,97.600 239.387 C 96.830 239.692,95.390 240.054,94.400 240.191 C 93.410 240.327,91.489 240.963,90.132 241.604 C 88.775 242.245,87.155 242.893,86.532 243.045 C 84.937 243.434,80.285 245.817,77.121 247.866 C 75.648 248.820,74.348 249.600,74.232 249.600 C 73.790 249.600,67.283 255.001,64.661 257.544 C 60.422 261.654,52.800 271.629,52.800 273.066 C 52.800 273.291,52.456 273.787,52.036 274.167 C 51.616 274.548,51.157 275.316,51.017 275.874 C 50.877 276.433,49.961 278.548,48.981 280.576 C 48.002 282.603,47.200 284.617,47.200 285.051 C 47.200 285.485,47.019 286.021,46.797 286.243 C 46.289 286.751,45.374 289.920,44.327 294.800 C 43.208 300.015,42.848 314.533,43.742 318.400 C 44.072 319.830,44.460 322.048,44.604 323.329 C 44.747 324.609,45.120 326.269,45.432 327.016 C 45.745 327.763,46.000 328.808,46.000 329.338 C 46.000 329.868,46.251 330.510,46.558 330.765 C 46.865 331.020,47.231 331.840,47.371 332.588 C 47.512 333.335,48.520 335.765,49.613 337.988 C 50.706 340.210,51.600 342.175,51.600 342.354 C 51.600 342.533,52.140 343.425,52.800 344.337 C 53.460 345.248,54.000 346.130,54.000 346.297 C 54.000 346.463,54.766 347.590,55.701 348.800 C 56.636 350.010,57.671 351.528,58.000 352.172 C 58.706 353.553,67.087 362.087,69.400 363.781 C 70.280 364.425,71.900 365.621,73.000 366.439 C 74.100 367.256,76.093 368.477,77.428 369.152 C 78.764 369.826,80.188 370.745,80.594 371.193 C 80.999 371.641,82.157 372.255,83.166 372.557 C 84.175 372.859,85.873 373.572,86.939 374.142 C 88.006 374.712,89.536 375.297,90.339 375.441 C 91.143 375.586,91.980 375.842,92.200 376.010 C 95.505 378.540,116.199 380.518,123.400 378.993 C 124.940 378.667,126.604 378.400,127.098 378.400 C 127.592 378.400,129.033 378.057,130.298 377.637 C 131.564 377.218,133.434 376.774,134.453 376.651 C 135.473 376.529,136.925 376.063,137.680 375.618 C 138.436 375.172,140.032 374.468,141.227 374.054 C 150.321 370.900,160.974 363.114,168.600 354.046 C 170.140 352.215,171.715 350.348,172.100 349.897 C 172.485 349.446,172.800 348.841,172.800 348.553 C 172.800 348.264,173.316 347.437,173.947 346.714 C 174.578 345.991,175.451 344.680,175.886 343.800 C 176.322 342.920,177.426 340.724,178.339 338.921 C 179.253 337.117,180.000 335.440,180.000 335.193 C 180.000 334.946,180.532 333.452,181.181 331.872 C 181.831 330.292,182.738 327.380,183.197 325.400 C 183.657 323.420,184.221 320.990,184.452 320.000 C 185.149 317.014,185.387 304.404,184.821 300.476 C 183.893 294.043,182.694 288.656,181.813 286.967 C 181.479 286.325,181.204 285.504,181.202 285.142 C 181.201 284.779,180.546 283.069,179.748 281.342 C 178.026 277.617,176.936 275.163,176.741 274.571 C 176.300 273.231,169.108 263.176,167.539 261.707 C 166.516 260.748,165.256 259.342,164.739 258.581 C 164.223 257.821,163.530 257.107,163.200 256.995 C 162.870 256.884,161.070 255.359,159.200 253.608 C 157.330 251.856,155.260 250.209,154.600 249.947 C 153.940 249.685,153.040 249.157,152.600 248.774 C 149.305 245.907,139.307 241.652,130.463 239.354 C 124.259 237.742,114.778 236.960,109.000 237.584 " stroke="none" fill="#e3245c" fill-rule="evenodd"></path><path id="path3" d="M0.000 208.400 L 0.000 416.800 200.000 416.800 L 400.000 416.800 400.000 208.400 L 400.000 0.000 200.000 0.000 L 0.000 0.000 0.000 208.400 M310.374 60.607 C 317.864 62.338,326.854 65.108,328.686 66.248 C 329.173 66.552,329.824 66.800,330.132 66.800 C 330.440 66.800,331.150 67.160,331.709 67.600 C 332.269 68.040,333.012 68.400,333.362 68.400 C 333.712 68.400,334.673 69.005,335.499 69.745 C 336.324 70.486,337.553 71.374,338.229 71.719 C 338.905 72.065,339.701 72.640,339.997 72.997 C 340.294 73.354,341.127 73.893,341.848 74.194 C 343.436 74.858,352.809 83.885,354.520 86.400 C 355.194 87.390,356.505 89.100,357.434 90.200 C 358.363 91.300,359.584 93.190,360.146 94.400 C 360.709 95.610,361.528 97.230,361.967 98.000 C 363.332 100.395,366.000 106.232,366.000 106.822 C 366.000 107.132,366.345 108.288,366.766 109.392 C 367.597 111.571,367.910 112.719,369.170 118.219 C 370.109 122.316,370.372 138.127,369.559 141.600 C 369.327 142.590,368.902 144.660,368.615 146.200 C 367.808 150.519,365.466 157.499,363.783 160.600 C 362.948 162.140,361.578 164.709,360.740 166.308 C 359.901 167.908,358.856 169.602,358.417 170.074 C 357.978 170.545,357.426 171.515,357.190 172.230 C 356.954 172.945,356.508 173.627,356.198 173.746 C 355.888 173.865,354.658 175.275,353.466 176.881 C 350.265 181.190,345.044 185.879,338.960 189.910 C 331.439 194.893,330.416 195.415,322.400 198.357 C 321.410 198.721,320.419 199.133,320.197 199.273 C 319.975 199.413,319.075 199.649,318.197 199.797 C 317.319 199.945,315.790 200.316,314.800 200.620 C 304.940 203.655,284.105 202.328,274.200 198.035 C 273.320 197.654,271.790 197.023,270.800 196.633 C 269.810 196.243,268.082 195.491,266.960 194.962 C 265.838 194.433,264.744 194.000,264.530 194.000 C 264.315 194.000,263.703 193.528,263.170 192.952 C 262.636 192.375,261.448 191.577,260.528 191.178 C 259.609 190.779,258.665 190.095,258.431 189.658 C 258.197 189.221,257.384 188.659,256.623 188.408 C 254.739 187.786,244.126 177.210,240.960 172.799 C 238.199 168.954,231.607 156.521,231.586 155.120 C 231.579 154.614,231.225 153.480,230.800 152.600 C 230.375 151.720,230.021 150.353,230.014 149.561 C 230.006 148.770,229.742 147.600,229.428 146.961 C 225.808 139.616,228.300 110.818,233.215 103.200 C 233.428 102.870,233.793 102.150,234.026 101.600 C 235.454 98.237,237.916 93.611,238.877 92.486 C 239.495 91.763,240.000 90.978,240.000 90.742 C 240.000 90.505,240.765 89.389,241.700 88.262 C 242.635 87.135,243.670 85.855,244.000 85.419 C 250.406 76.950,265.976 66.257,275.800 63.580 C 277.560 63.101,279.630 62.439,280.400 62.109 C 281.170 61.780,282.790 61.341,284.000 61.135 C 285.210 60.929,287.010 60.613,288.000 60.434 C 291.405 59.816,307.490 59.940,310.374 60.607 M141.000 75.616 C 142.100 75.819,144.852 76.246,147.116 76.566 C 150.952 77.107,154.871 78.115,155.800 78.801 C 156.020 78.963,156.920 79.222,157.800 79.377 C 158.680 79.532,159.760 79.879,160.200 80.147 C 160.640 80.415,162.350 81.162,164.000 81.805 C 165.650 82.449,167.863 83.476,168.918 84.088 C 169.972 84.700,170.919 85.200,171.022 85.200 C 171.124 85.200,172.093 85.822,173.175 86.583 C 174.257 87.343,175.793 88.237,176.589 88.569 C 177.384 88.902,179.272 90.395,180.785 91.887 C 182.298 93.379,184.383 95.410,185.420 96.400 C 186.457 97.390,188.007 99.145,188.865 100.300 C 189.723 101.455,190.576 102.400,190.761 102.400 C 190.945 102.400,192.005 103.795,193.115 105.500 C 194.226 107.205,195.689 109.129,196.367 109.775 C 197.045 110.421,197.600 111.199,197.600 111.503 C 197.600 111.808,198.138 113.079,198.795 114.328 C 200.924 118.378,203.166 124.430,204.378 129.400 C 204.646 130.500,205.131 132.210,205.457 133.200 C 205.793 134.224,206.212 137.931,206.428 141.800 C 207.204 155.711,209.003 166.711,211.174 170.813 C 211.352 171.150,211.635 172.047,211.801 172.805 C 211.968 173.563,212.711 175.515,213.452 177.142 C 214.193 178.769,214.800 180.334,214.800 180.619 C 214.800 180.905,215.385 181.918,216.101 182.869 C 216.817 183.821,218.119 185.680,218.995 187.000 C 219.872 188.320,221.131 190.056,221.794 190.858 C 222.457 191.660,223.450 192.960,224.000 193.747 C 224.550 194.534,225.180 195.198,225.400 195.222 C 225.620 195.246,226.610 196.202,227.600 197.347 C 229.178 199.173,234.773 203.872,236.712 205.000 C 237.091 205.220,239.200 206.578,241.400 208.017 C 246.345 211.252,252.135 214.000,254.006 214.000 C 254.773 214.000,256.487 214.515,257.817 215.144 C 261.512 216.892,267.688 217.985,276.084 218.375 C 280.108 218.562,286.065 219.017,289.323 219.386 C 294.682 219.992,296.190 220.338,300.800 222.020 C 302.450 222.621,308.480 225.351,310.200 226.275 C 310.860 226.629,312.750 227.634,314.400 228.508 C 319.534 231.226,321.489 232.746,326.726 238.094 C 329.517 240.944,332.227 243.664,332.750 244.138 C 334.024 245.295,336.668 248.829,338.472 251.786 C 341.916 257.431,343.200 259.698,343.202 260.135 C 343.204 260.391,343.488 261.140,343.835 261.800 C 344.700 263.448,345.453 265.537,346.790 270.000 C 347.416 272.090,348.138 274.340,348.395 275.000 C 350.232 279.719,350.135 298.810,348.240 305.189 C 347.888 306.375,347.600 307.899,347.600 308.576 C 347.600 310.033,345.789 315.466,343.992 319.400 C 343.289 320.940,342.449 322.797,342.126 323.526 C 341.802 324.255,341.033 325.605,340.417 326.526 C 339.801 327.447,338.827 329.100,338.253 330.200 C 337.679 331.300,336.116 333.370,334.780 334.800 C 333.444 336.230,332.107 337.940,331.809 338.600 C 331.017 340.354,326.166 345.137,323.183 347.103 C 321.763 348.040,320.070 349.351,319.421 350.015 C 318.773 350.680,317.783 351.336,317.221 351.473 C 316.660 351.609,315.480 352.210,314.600 352.807 C 312.716 354.085,309.005 356.000,308.411 356.000 C 307.952 356.000,304.995 357.409,302.761 358.691 C 301.347 359.503,296.296 360.924,292.519 361.571 C 282.821 363.234,282.176 363.291,275.400 363.079 C 268.011 362.848,257.631 360.929,254.394 359.197 C 253.986 358.978,253.285 358.800,252.836 358.800 C 252.387 358.800,251.430 358.441,250.710 358.001 C 249.989 357.562,249.126 357.202,248.790 357.201 C 248.455 357.201,245.952 355.940,243.228 354.400 C 240.505 352.860,238.181 351.600,238.064 351.600 C 237.947 351.600,237.480 351.262,237.026 350.848 C 236.572 350.434,235.158 349.381,233.883 348.507 C 230.387 346.109,221.746 337.436,219.747 334.318 C 218.789 332.823,217.862 331.600,217.686 331.600 C 217.510 331.600,217.092 331.015,216.757 330.300 C 216.422 329.585,215.272 327.470,214.202 325.600 C 211.295 320.523,209.601 317.088,209.600 316.274 C 209.600 315.874,209.386 315.154,209.125 314.674 C 208.863 314.193,208.419 312.720,208.138 311.400 C 207.857 310.080,207.164 307.020,206.599 304.600 C 205.754 300.984,205.534 298.846,205.364 292.600 C 205.251 288.420,204.911 283.830,204.610 282.400 C 201.807 269.080,199.831 263.235,195.803 256.354 C 195.080 255.118,194.354 253.678,194.191 253.154 C 193.301 250.296,180.219 236.197,176.800 234.410 C 176.030 234.007,174.964 233.210,174.430 232.639 C 173.897 232.068,173.299 231.600,173.102 231.600 C 172.905 231.600,171.992 231.085,171.072 230.455 C 170.152 229.825,168.950 229.169,168.400 228.997 C 167.850 228.826,165.402 227.654,162.960 226.395 C 160.518 225.135,157.548 223.887,156.360 223.620 C 155.172 223.354,152.940 222.797,151.400 222.383 C 145.435 220.780,142.833 220.437,134.800 220.197 C 127.004 219.965,122.433 219.409,118.400 218.202 C 117.410 217.906,115.720 217.545,114.645 217.399 C 112.373 217.092,111.744 216.837,104.000 213.088 C 96.971 209.685,93.436 207.660,91.669 206.022 C 90.937 205.344,89.857 204.535,89.269 204.226 C 87.802 203.454,77.961 193.505,77.117 191.941 C 76.741 191.245,75.886 189.994,75.217 189.161 C 74.548 188.328,74.000 187.536,74.000 187.400 C 74.000 187.264,73.465 186.488,72.812 185.675 C 72.158 184.861,71.173 183.086,70.622 181.730 C 70.071 180.374,69.173 178.607,68.627 177.802 C 67.358 175.931,66.117 172.609,65.380 169.106 C 65.061 167.589,64.644 166.044,64.454 165.674 C 64.263 165.303,63.990 164.100,63.847 163.000 C 63.704 161.900,63.328 160.280,63.011 159.400 C 62.170 157.065,62.176 140.901,63.019 136.015 C 64.122 129.623,66.223 122.832,68.600 117.972 C 70.962 113.146,71.656 111.847,72.008 111.600 C 72.165 111.490,72.703 110.590,73.204 109.600 C 73.705 108.610,74.688 107.080,75.389 106.200 C 76.090 105.320,77.141 103.762,77.726 102.738 C 78.311 101.714,79.557 100.275,80.495 99.540 C 81.433 98.806,82.559 97.754,82.998 97.202 C 84.564 95.236,89.464 90.800,90.070 90.800 C 90.280 90.800,90.898 90.270,91.443 89.621 C 91.989 88.973,92.787 88.331,93.217 88.195 C 93.647 88.058,94.918 87.328,96.040 86.573 C 97.162 85.818,98.261 85.200,98.483 85.200 C 98.704 85.200,99.541 84.684,100.342 84.053 C 101.144 83.423,102.250 82.771,102.800 82.606 C 104.144 82.201,107.134 80.914,108.553 80.129 C 109.188 79.779,110.268 79.345,110.953 79.167 C 111.639 78.988,113.460 78.466,115.000 78.007 C 121.497 76.069,136.150 74.722,141.000 75.616 M125.886 237.446 C 126.373 237.751,127.497 238.000,128.384 238.000 C 129.271 238.000,131.033 238.347,132.298 238.771 C 133.564 239.194,135.185 239.659,135.900 239.802 C 136.615 239.946,137.200 240.229,137.200 240.432 C 137.200 240.634,137.572 240.800,138.026 240.800 C 139.320 240.800,146.921 244.026,147.382 244.770 C 147.507 244.973,148.147 245.257,148.805 245.401 C 149.462 245.545,150.000 245.810,150.000 245.988 C 150.000 246.167,150.447 246.425,150.993 246.562 C 151.539 246.699,152.574 247.322,153.293 247.947 C 154.012 248.571,155.080 249.244,155.666 249.441 C 156.615 249.760,158.389 251.293,164.464 257.043 C 167.066 259.506,171.109 264.045,172.097 265.614 C 173.512 267.860,173.710 268.161,175.700 271.092 C 176.745 272.631,177.600 274.050,177.599 274.245 C 177.598 274.603,178.105 275.713,180.366 280.306 C 181.045 281.684,181.600 283.131,181.600 283.521 C 181.600 283.912,181.960 284.937,182.400 285.800 C 182.840 286.663,183.200 287.790,183.200 288.304 C 183.200 288.819,183.478 289.777,183.817 290.433 C 184.156 291.089,184.592 292.745,184.784 294.113 C 184.977 295.481,185.325 297.320,185.558 298.200 C 186.218 300.697,186.136 318.824,185.459 319.811 C 185.161 320.245,184.798 321.648,184.652 322.930 C 184.506 324.211,184.119 325.898,183.793 326.678 C 183.467 327.459,183.200 328.594,183.200 329.200 C 183.200 329.806,182.942 330.517,182.626 330.779 C 182.310 331.041,181.935 331.828,181.794 332.528 C 181.401 334.464,180.181 337.595,179.037 339.600 C 178.472 340.590,177.901 341.670,177.766 342.000 C 176.941 344.029,175.329 346.771,174.345 347.819 C 173.715 348.490,173.200 349.274,173.200 349.561 C 173.200 349.849,172.728 350.650,172.151 351.342 C 171.574 352.034,170.359 353.500,169.451 354.600 C 166.906 357.683,158.691 365.600,158.038 365.600 C 157.851 365.600,157.477 365.866,157.207 366.191 C 156.937 366.517,155.483 367.595,153.975 368.589 C 151.391 370.291,150.501 370.824,146.600 373.009 C 145.720 373.502,143.470 374.409,141.600 375.025 C 139.730 375.642,137.916 376.383,137.569 376.673 C 137.221 376.963,136.484 377.200,135.931 377.200 C 135.378 377.200,133.879 377.560,132.600 378.000 C 131.321 378.440,129.487 378.800,128.523 378.800 C 127.560 378.800,126.341 379.082,125.814 379.427 C 124.625 380.207,102.278 380.091,100.200 379.295 C 99.540 379.042,97.830 378.552,96.400 378.207 C 91.725 377.078,90.637 376.763,90.216 376.415 C 89.987 376.226,89.080 375.943,88.200 375.785 C 87.320 375.628,86.330 375.288,86.000 375.030 C 85.670 374.773,84.320 374.141,83.000 373.627 C 81.680 373.112,80.399 372.444,80.154 372.142 C 79.740 371.634,77.620 370.388,74.513 368.828 C 73.806 368.472,72.366 367.357,71.313 366.349 C 70.261 365.341,69.012 364.393,68.538 364.243 C 67.425 363.891,57.363 353.545,56.990 352.370 C 56.834 351.878,56.184 350.902,55.546 350.201 C 54.908 349.499,53.660 347.682,52.773 346.163 C 51.886 344.643,51.001 343.130,50.807 342.800 C 49.458 340.503,47.090 335.159,46.909 334.000 C 46.789 333.230,46.448 332.150,46.151 331.600 C 45.086 329.627,44.314 326.949,43.962 324.000 C 43.764 322.350,43.377 320.568,43.102 320.039 C 42.237 318.383,42.404 297.877,43.300 295.692 C 43.685 294.752,44.000 293.218,44.000 292.281 C 44.000 291.344,44.247 290.223,44.549 289.789 C 44.851 289.355,45.228 288.370,45.388 287.600 C 45.548 286.830,45.931 285.801,46.239 285.314 C 46.548 284.827,46.800 283.981,46.800 283.435 C 46.800 282.537,48.253 279.345,49.163 278.242 C 49.364 277.999,49.662 277.080,49.825 276.200 C 49.988 275.320,50.409 274.330,50.760 274.000 C 51.112 273.670,51.835 272.590,52.367 271.600 C 53.731 269.059,55.553 266.399,56.866 265.030 C 57.483 264.387,58.477 263.127,59.075 262.230 C 60.566 259.994,65.459 254.979,67.369 253.729 C 68.232 253.165,69.762 251.938,70.769 251.004 C 71.776 250.070,73.230 248.984,74.000 248.592 C 74.770 248.199,76.718 247.005,78.329 245.939 C 79.941 244.873,81.421 244.000,81.620 244.000 C 81.818 244.000,82.570 243.641,83.290 243.201 C 84.011 242.762,85.006 242.402,85.501 242.401 C 85.997 242.401,87.075 242.040,87.896 241.600 C 88.716 241.160,89.684 240.800,90.045 240.800 C 90.406 240.800,90.926 240.530,91.200 240.200 C 91.496 239.843,92.370 239.600,93.355 239.600 C 94.266 239.600,95.684 239.240,96.504 238.800 C 97.435 238.302,98.761 238.000,100.025 238.000 C 101.140 238.000,102.446 237.783,102.926 237.519 C 104.979 236.388,124.099 236.327,125.886 237.446 " stroke="none" fill="#fbfbfb" fill-rule="evenodd"></path><path id="path4" d="M129.800 75.628 C 124.102 76.150,117.866 77.152,115.000 78.007 C 113.460 78.466,111.639 78.988,110.953 79.167 C 110.268 79.345,109.188 79.779,108.553 80.129 C 107.134 80.914,104.144 82.201,102.800 82.606 C 102.250 82.771,101.144 83.423,100.342 84.053 C 99.541 84.684,98.704 85.200,98.483 85.200 C 98.261 85.200,97.162 85.818,96.040 86.573 C 94.918 87.328,93.647 88.058,93.217 88.195 C 92.787 88.331,91.989 88.973,91.443 89.621 C 90.898 90.270,90.280 90.800,90.070 90.800 C 89.464 90.800,84.564 95.236,82.998 97.202 C 82.559 97.754,81.433 98.806,80.495 99.540 C 79.557 100.275,78.311 101.714,77.726 102.738 C 77.141 103.762,76.090 105.320,75.389 106.200 C 74.688 107.080,73.705 108.610,73.204 109.600 C 72.703 110.590,72.165 111.490,72.008 111.600 C 69.791 113.159,64.469 127.613,63.019 136.015 C 62.176 140.901,62.170 157.065,63.011 159.400 C 63.328 160.280,63.704 161.900,63.847 163.000 C 63.990 164.100,64.263 165.303,64.454 165.674 C 64.644 166.044,65.061 167.589,65.380 169.106 C 66.117 172.609,67.358 175.931,68.627 177.802 C 69.173 178.607,70.071 180.374,70.622 181.730 C 71.173 183.086,72.158 184.861,72.812 185.675 C 73.465 186.488,74.000 187.264,74.000 187.400 C 74.000 187.536,74.548 188.328,75.217 189.161 C 75.886 189.994,76.741 191.245,77.117 191.941 C 77.961 193.505,87.802 203.454,89.269 204.226 C 89.857 204.535,90.937 205.344,91.669 206.022 C 93.436 207.660,96.971 209.685,104.000 213.088 C 111.744 216.837,112.373 217.092,114.645 217.399 C 115.720 217.545,117.410 217.906,118.400 218.202 C 122.433 219.409,127.004 219.965,134.800 220.197 C 142.833 220.437,145.435 220.780,151.400 222.383 C 152.940 222.797,155.172 223.354,156.360 223.620 C 157.548 223.887,160.518 225.135,162.960 226.395 C 165.402 227.654,167.850 228.826,168.400 228.997 C 168.950 229.169,170.152 229.825,171.072 230.455 C 171.992 231.085,172.905 231.600,173.102 231.600 C 173.299 231.600,173.897 232.068,174.430 232.639 C 174.964 233.210,176.030 234.007,176.800 234.410 C 180.219 236.197,193.301 250.296,194.191 253.154 C 194.354 253.678,195.080 255.118,195.803 256.354 C 199.831 263.235,201.807 269.080,204.610 282.400 C 204.911 283.830,205.251 288.420,205.364 292.600 C 205.534 298.846,205.754 300.984,206.599 304.600 C 207.164 307.020,207.857 310.080,208.138 311.400 C 208.419 312.720,208.863 314.193,209.125 314.674 C 209.386 315.154,209.600 315.874,209.600 316.274 C 209.601 317.088,211.295 320.523,214.202 325.600 C 215.272 327.470,216.422 329.585,216.757 330.300 C 217.092 331.015,217.510 331.600,217.686 331.600 C 217.862 331.600,218.789 332.823,219.747 334.318 C 221.746 337.436,230.387 346.109,233.883 348.507 C 235.158 349.381,236.572 350.434,237.026 350.848 C 237.480 351.262,237.947 351.600,238.064 351.600 C 238.181 351.600,240.505 352.860,243.228 354.400 C 245.952 355.940,248.455 357.201,248.790 357.201 C 249.126 357.202,249.989 357.562,250.710 358.001 C 251.430 358.441,252.387 358.800,252.836 358.800 C 253.285 358.800,253.986 358.978,254.394 359.197 C 257.631 360.929,268.011 362.848,275.400 363.079 C 282.176 363.291,282.821 363.234,292.519 361.571 C 296.296 360.924,301.347 359.503,302.761 358.691 C 304.995 357.409,307.952 356.000,308.411 356.000 C 309.005 356.000,312.716 354.085,314.600 352.807 C 315.480 352.210,316.660 351.609,317.221 351.473 C 317.783 351.336,318.773 350.680,319.421 350.015 C 320.070 349.351,321.763 348.040,323.183 347.103 C 326.166 345.137,331.017 340.354,331.809 338.600 C 332.107 337.940,333.444 336.230,334.780 334.800 C 336.116 333.370,337.679 331.300,338.253 330.200 C 338.827 329.100,339.801 327.447,340.417 326.526 C 341.033 325.605,341.802 324.255,342.126 323.526 C 342.449 322.797,343.289 320.940,343.992 319.400 C 345.789 315.466,347.600 310.033,347.600 308.576 C 347.600 307.899,347.888 306.375,348.240 305.189 C 350.135 298.810,350.232 279.719,348.395 275.000 C 348.138 274.340,347.416 272.090,346.790 270.000 C 345.453 265.537,344.700 263.448,343.835 261.800 C 343.488 261.140,343.204 260.391,343.202 260.135 C 343.200 259.698,341.916 257.431,338.472 251.786 C 336.668 248.829,334.024 245.295,332.750 244.138 C 332.227 243.664,329.517 240.944,326.726 238.094 C 321.489 232.746,319.534 231.226,314.400 228.508 C 312.750 227.634,310.860 226.629,310.200 226.275 C 308.480 225.351,302.450 222.621,300.800 222.020 C 296.190 220.338,294.682 219.992,289.323 219.386 C 286.065 219.017,280.108 218.562,276.084 218.375 C 267.688 217.985,261.512 216.892,257.817 215.144 C 256.487 214.515,254.773 214.000,254.006 214.000 C 252.135 214.000,246.345 211.252,241.400 208.017 C 239.200 206.578,237.091 205.220,236.712 205.000 C 234.773 203.872,229.178 199.173,227.600 197.347 C 226.610 196.202,225.620 195.246,225.400 195.222 C 225.180 195.198,224.550 194.534,224.000 193.747 C 223.450 192.960,222.457 191.660,221.794 190.858 C 221.131 190.056,219.872 188.320,218.995 187.000 C 218.119 185.680,216.817 183.821,216.101 182.869 C 215.385 181.918,214.800 180.905,214.800 180.619 C 214.800 180.334,214.193 178.769,213.452 177.142 C 212.711 175.515,211.968 173.563,211.801 172.805 C 211.635 172.047,211.352 171.150,211.174 170.813 C 209.003 166.711,207.204 155.711,206.428 141.800 C 206.212 137.931,205.793 134.224,205.457 133.200 C 205.131 132.210,204.646 130.500,204.378 129.400 C 203.166 124.430,200.924 118.378,198.795 114.328 C 198.138 113.079,197.600 111.808,197.600 111.503 C 197.600 111.199,197.045 110.421,196.367 109.775 C 195.689 109.129,194.226 107.205,193.115 105.500 C 192.005 103.795,190.945 102.400,190.761 102.400 C 190.576 102.400,189.723 101.455,188.865 100.300 C 188.007 99.145,186.457 97.390,185.420 96.400 C 184.383 95.410,182.298 93.379,180.785 91.887 C 179.272 90.395,177.384 88.902,176.589 88.569 C 175.793 88.237,174.257 87.343,173.175 86.583 C 172.093 85.822,171.124 85.200,171.022 85.200 C 170.919 85.200,169.972 84.700,168.918 84.088 C 167.863 83.476,165.650 82.449,164.000 81.805 C 162.350 81.162,160.640 80.415,160.200 80.147 C 159.760 79.879,158.680 79.532,157.800 79.377 C 156.920 79.222,156.020 78.963,155.800 78.801 C 154.871 78.115,150.952 77.107,147.116 76.566 C 144.852 76.246,142.100 75.819,141.000 75.616 C 138.721 75.196,134.470 75.201,129.800 75.628 M148.400 78.561 C 154.607 79.991,158.096 81.060,161.108 82.457 C 169.026 86.127,170.525 86.890,172.282 88.138 C 173.337 88.888,174.792 89.802,175.515 90.169 C 176.238 90.536,178.069 92.043,179.583 93.518 C 181.097 94.993,183.385 97.194,184.668 98.409 C 188.683 102.212,191.297 105.453,194.200 110.232 C 194.640 110.956,195.585 112.379,196.300 113.394 C 197.015 114.410,197.600 115.331,197.600 115.442 C 197.600 115.553,198.667 118.379,199.970 121.722 C 201.274 125.065,202.722 129.600,203.187 131.800 C 203.653 134.000,204.283 136.610,204.588 137.600 C 204.941 138.746,205.238 142.526,205.406 148.000 C 205.551 152.730,205.845 157.410,206.058 158.400 C 206.272 159.390,206.586 160.920,206.757 161.800 C 208.213 169.288,213.396 182.694,215.864 185.356 C 216.379 185.911,216.800 186.513,216.800 186.693 C 216.800 187.408,223.137 195.420,226.739 199.260 C 229.180 201.861,236.630 207.679,238.262 208.258 C 238.668 208.401,239.360 208.831,239.800 209.213 C 242.419 211.483,256.850 217.600,259.586 217.600 C 260.062 217.600,260.772 217.771,261.163 217.980 C 262.653 218.777,272.083 219.950,278.800 220.173 C 282.650 220.301,286.520 220.587,287.400 220.808 C 288.280 221.029,290.480 221.390,292.288 221.608 C 297.666 222.259,307.500 226.376,315.582 231.361 C 317.221 232.372,318.708 233.200,318.884 233.200 C 319.729 233.200,332.643 246.179,333.610 248.000 C 334.018 248.770,334.904 249.975,335.576 250.678 C 336.249 251.381,336.800 252.126,336.800 252.333 C 336.800 252.540,337.485 253.764,338.321 255.054 C 341.199 259.492,342.320 261.527,342.608 262.835 C 342.766 263.556,343.342 265.329,343.887 266.773 C 344.433 268.218,345.106 270.307,345.384 271.417 C 345.662 272.526,346.085 273.786,346.325 274.217 C 347.954 277.147,348.970 294.874,347.770 299.416 C 347.423 300.727,346.905 303.240,346.619 305.000 C 346.046 308.523,345.343 311.061,344.013 314.400 C 343.531 315.610,342.953 317.230,342.729 318.000 C 342.504 318.770,342.089 319.670,341.806 320.000 C 341.523 320.330,340.825 321.590,340.253 322.800 C 337.955 327.668,335.031 332.368,333.408 333.800 C 333.159 334.020,332.174 335.280,331.220 336.600 C 328.698 340.090,327.758 341.042,324.217 343.690 C 322.467 345.000,320.347 346.759,319.506 347.600 C 318.665 348.441,316.677 349.755,315.088 350.520 C 313.500 351.285,311.857 352.291,311.438 352.756 C 311.019 353.220,310.479 353.606,310.238 353.614 C 309.997 353.621,309.080 353.975,308.200 354.400 C 307.320 354.825,306.449 355.179,306.265 355.186 C 306.080 355.194,304.730 355.761,303.265 356.447 C 299.241 358.329,295.390 359.600,293.708 359.600 C 292.878 359.600,290.850 359.855,289.200 360.166 C 282.134 361.497,277.562 361.706,270.689 361.011 C 264.089 360.345,263.332 360.206,259.800 359.014 C 258.700 358.643,256.540 357.991,255.000 357.564 C 252.120 356.768,245.675 353.931,244.129 352.779 C 243.651 352.423,242.391 351.809,241.329 351.415 C 240.268 351.020,238.770 350.123,238.000 349.420 C 237.230 348.718,236.130 347.853,235.556 347.499 C 232.855 345.833,223.058 336.220,221.391 333.600 C 220.761 332.610,219.845 331.350,219.355 330.800 C 218.866 330.250,217.608 328.180,216.561 326.200 C 215.513 324.220,214.073 321.685,213.359 320.567 C 212.645 319.449,211.932 317.829,211.773 316.967 C 211.615 316.105,210.976 314.050,210.354 312.400 C 208.426 307.285,207.535 301.534,206.415 287.000 C 205.975 281.280,205.363 275.700,205.055 274.600 C 203.169 267.856,202.572 266.212,199.902 260.400 C 196.894 253.852,194.526 249.671,192.993 248.200 C 192.535 247.760,191.635 246.680,190.994 245.800 C 189.511 243.766,179.860 234.000,179.333 234.000 C 179.115 234.000,177.620 232.977,176.010 231.726 C 172.989 229.379,161.055 223.061,158.453 222.431 C 157.654 222.238,155.200 221.599,153.000 221.011 C 147.227 219.468,139.620 218.495,131.600 218.274 C 126.873 218.144,124.015 217.885,122.800 217.476 C 121.810 217.143,120.010 216.742,118.800 216.585 C 117.590 216.428,115.340 215.866,113.800 215.338 C 112.260 214.809,110.385 214.185,109.633 213.951 C 108.881 213.717,107.621 213.126,106.833 212.638 C 106.045 212.150,104.770 211.510,104.000 211.215 C 96.534 208.355,82.243 196.917,78.531 190.831 C 77.804 189.637,76.800 188.197,76.301 187.631 C 74.606 185.706,72.515 182.207,71.854 180.189 C 71.491 179.083,70.764 177.545,70.238 176.770 C 69.142 175.158,66.736 168.333,65.805 164.200 C 65.459 162.660,64.997 160.680,64.779 159.800 C 63.575 154.934,63.976 138.478,65.441 132.648 C 67.243 125.475,67.830 123.875,70.849 117.919 C 71.262 117.105,71.600 116.204,71.600 115.918 C 71.600 115.632,72.212 114.536,72.960 113.484 C 73.708 112.432,74.427 111.148,74.556 110.632 C 74.686 110.116,75.340 109.106,76.011 108.388 C 76.682 107.670,77.836 106.049,78.577 104.786 C 79.347 103.472,81.675 100.800,84.016 98.544 C 86.267 96.375,88.657 94.064,89.329 93.410 C 90.953 91.826,92.544 90.685,95.200 89.199 C 96.410 88.522,98.570 87.253,100.000 86.380 C 102.690 84.739,103.852 84.143,108.600 81.976 C 111.526 80.641,111.851 80.546,117.978 79.234 C 120.056 78.789,122.036 78.296,122.378 78.137 C 125.075 76.886,142.351 77.167,148.400 78.561 M108.400 236.777 C 105.870 236.920,103.407 237.254,102.926 237.519 C 102.446 237.783,101.140 238.000,100.025 238.000 C 98.761 238.000,97.435 238.302,96.504 238.800 C 95.684 239.240,94.266 239.600,93.355 239.600 C 92.370 239.600,91.496 239.843,91.200 240.200 C 90.926 240.530,90.406 240.800,90.045 240.800 C 89.684 240.800,88.716 241.160,87.896 241.600 C 87.075 242.040,85.997 242.401,85.501 242.401 C 85.006 242.402,84.011 242.762,83.290 243.201 C 82.570 243.641,81.818 244.000,81.620 244.000 C 81.421 244.000,79.941 244.873,78.329 245.939 C 76.718 247.005,74.770 248.199,74.000 248.592 C 73.230 248.984,71.776 250.070,70.769 251.004 C 69.762 251.938,68.232 253.165,67.369 253.729 C 65.459 254.979,60.566 259.994,59.075 262.230 C 58.477 263.127,57.483 264.387,56.866 265.030 C 55.553 266.399,53.731 269.059,52.367 271.600 C 51.835 272.590,51.112 273.670,50.760 274.000 C 50.409 274.330,49.988 275.320,49.825 276.200 C 49.662 277.080,49.364 277.999,49.163 278.242 C 48.253 279.345,46.800 282.537,46.800 283.435 C 46.800 283.981,46.548 284.827,46.239 285.314 C 45.931 285.801,45.548 286.830,45.388 287.600 C 45.228 288.370,44.851 289.355,44.549 289.789 C 44.247 290.223,44.000 291.344,44.000 292.281 C 44.000 293.218,43.685 294.752,43.300 295.692 C 42.404 297.877,42.237 318.383,43.102 320.039 C 43.377 320.568,43.764 322.350,43.962 324.000 C 44.314 326.949,45.086 329.627,46.151 331.600 C 46.448 332.150,46.789 333.230,46.909 334.000 C 47.090 335.159,49.458 340.503,50.807 342.800 C 51.001 343.130,51.886 344.643,52.773 346.163 C 53.660 347.682,54.908 349.499,55.546 350.201 C 56.184 350.902,56.834 351.878,56.990 352.370 C 57.363 353.545,67.425 363.891,68.538 364.243 C 69.012 364.393,70.261 365.341,71.313 366.349 C 72.366 367.357,73.806 368.472,74.513 368.828 C 77.620 370.388,79.740 371.634,80.154 372.142 C 80.399 372.444,81.680 373.112,83.000 373.627 C 84.320 374.141,85.670 374.773,86.000 375.030 C 86.330 375.288,87.320 375.628,88.200 375.785 C 89.080 375.943,89.987 376.226,90.216 376.415 C 90.637 376.763,91.725 377.078,96.400 378.207 C 97.830 378.552,99.540 379.042,100.200 379.295 C 102.278 380.091,124.625 380.207,125.814 379.427 C 126.341 379.082,127.560 378.800,128.523 378.800 C 129.487 378.800,131.321 378.440,132.600 378.000 C 133.879 377.560,135.378 377.200,135.931 377.200 C 136.484 377.200,137.221 376.963,137.569 376.673 C 137.916 376.383,139.730 375.642,141.600 375.025 C 143.470 374.409,145.720 373.502,146.600 373.009 C 150.501 370.824,151.391 370.291,153.975 368.589 C 155.483 367.595,156.937 366.517,157.207 366.191 C 157.477 365.866,157.851 365.600,158.038 365.600 C 158.691 365.600,166.906 357.683,169.451 354.600 C 170.359 353.500,171.574 352.034,172.151 351.342 C 172.728 350.650,173.200 349.849,173.200 349.561 C 173.200 349.274,173.715 348.490,174.345 347.819 C 175.329 346.771,176.941 344.029,177.766 342.000 C 177.901 341.670,178.472 340.590,179.037 339.600 C 180.181 337.595,181.401 334.464,181.794 332.528 C 181.935 331.828,182.310 331.041,182.626 330.779 C 182.942 330.517,183.200 329.806,183.200 329.200 C 183.200 328.594,183.467 327.459,183.793 326.678 C 184.119 325.898,184.506 324.211,184.652 322.930 C 184.798 321.648,185.161 320.245,185.459 319.811 C 186.136 318.824,186.218 300.697,185.558 298.200 C 185.325 297.320,184.977 295.481,184.784 294.113 C 184.592 292.745,184.156 291.089,183.817 290.433 C 183.478 289.777,183.200 288.819,183.200 288.304 C 183.200 287.790,182.840 286.663,182.400 285.800 C 181.960 284.937,181.600 283.912,181.600 283.521 C 181.600 283.131,181.045 281.684,180.366 280.306 C 178.105 275.713,177.598 274.603,177.599 274.245 C 177.600 274.050,176.745 272.631,175.700 271.092 C 173.710 268.161,173.512 267.860,172.097 265.614 C 171.109 264.045,167.066 259.506,164.464 257.043 C 158.389 251.293,156.615 249.760,155.666 249.441 C 155.080 249.244,154.012 248.571,153.293 247.947 C 152.574 247.322,151.539 246.699,150.993 246.562 C 150.447 246.425,150.000 246.167,150.000 245.988 C 150.000 245.810,149.462 245.545,148.805 245.401 C 148.147 245.257,147.507 244.973,147.382 244.770 C 146.921 244.026,139.320 240.800,138.026 240.800 C 137.572 240.800,137.200 240.634,137.200 240.432 C 137.200 240.229,136.615 239.946,135.900 239.802 C 135.185 239.659,133.564 239.194,132.298 238.771 C 131.033 238.347,129.271 238.000,128.384 238.000 C 127.497 238.000,126.373 237.751,125.886 237.446 C 124.798 236.765,115.136 236.395,108.400 236.777 M123.256 237.974 C 132.500 239.059,147.985 244.758,152.600 248.774 C 153.040 249.157,153.940 249.685,154.600 249.947 C 155.260 250.209,157.330 251.856,159.200 253.608 C 161.070 255.359,162.870 256.884,163.200 256.995 C 163.530 257.107,164.223 257.821,164.739 258.581 C 165.256 259.342,166.516 260.748,167.539 261.707 C 169.108 263.176,176.300 273.231,176.741 274.571 C 176.936 275.163,178.026 277.617,179.748 281.342 C 180.546 283.069,181.201 284.779,181.202 285.142 C 181.204 285.504,181.479 286.325,181.813 286.967 C 182.694 288.656,183.893 294.043,184.821 300.476 C 185.387 304.404,185.149 317.014,184.452 320.000 C 184.221 320.990,183.657 323.420,183.197 325.400 C 182.738 327.380,181.831 330.292,181.181 331.872 C 180.532 333.452,180.000 334.946,180.000 335.193 C 180.000 335.440,179.253 337.117,178.339 338.921 C 177.426 340.724,176.322 342.920,175.886 343.800 C 175.451 344.680,174.578 345.991,173.947 346.714 C 173.316 347.437,172.800 348.264,172.800 348.553 C 172.800 348.841,172.485 349.446,172.100 349.897 C 171.715 350.348,170.140 352.215,168.600 354.046 C 163.943 359.584,158.923 364.076,153.222 367.806 C 148.719 370.753,144.683 372.855,141.227 374.054 C 140.032 374.468,138.436 375.172,137.680 375.618 C 136.925 376.063,135.473 376.529,134.453 376.651 C 133.434 376.774,131.564 377.218,130.298 377.637 C 129.033 378.057,127.592 378.400,127.098 378.400 C 126.604 378.400,124.940 378.667,123.400 378.993 C 116.199 380.518,95.505 378.540,92.200 376.010 C 91.980 375.842,91.143 375.586,90.339 375.441 C 89.536 375.297,88.006 374.712,86.939 374.142 C 85.873 373.572,84.175 372.859,83.166 372.557 C 82.157 372.255,80.999 371.641,80.594 371.193 C 80.188 370.745,78.764 369.826,77.428 369.152 C 76.093 368.477,74.100 367.256,73.000 366.439 C 71.900 365.621,70.280 364.425,69.400 363.781 C 67.087 362.087,58.706 353.553,58.000 352.172 C 57.671 351.528,56.636 350.010,55.701 348.800 C 54.766 347.590,54.000 346.463,54.000 346.297 C 54.000 346.130,53.460 345.248,52.800 344.337 C 52.140 343.425,51.600 342.533,51.600 342.354 C 51.600 342.175,50.706 340.210,49.613 337.988 C 48.520 335.765,47.512 333.335,47.371 332.588 C 47.231 331.840,46.865 331.020,46.558 330.765 C 46.251 330.510,46.000 329.868,46.000 329.338 C 46.000 328.808,45.745 327.763,45.432 327.016 C 45.120 326.269,44.747 324.609,44.604 323.329 C 44.460 322.048,44.072 319.830,43.742 318.400 C 42.848 314.533,43.208 300.015,44.327 294.800 C 45.374 289.920,46.289 286.751,46.797 286.243 C 47.019 286.021,47.200 285.485,47.200 285.051 C 47.200 284.617,48.002 282.603,48.981 280.576 C 49.961 278.548,50.877 276.433,51.017 275.874 C 51.157 275.316,51.616 274.548,52.036 274.167 C 52.456 273.787,52.800 273.291,52.800 273.066 C 52.800 271.629,60.422 261.654,64.661 257.544 C 67.283 255.001,73.790 249.600,74.232 249.600 C 74.348 249.600,75.648 248.820,77.121 247.866 C 80.285 245.817,84.937 243.434,86.532 243.045 C 87.155 242.893,88.775 242.245,90.132 241.604 C 91.489 240.963,93.410 240.327,94.400 240.191 C 95.390 240.054,96.830 239.692,97.600 239.387 C 98.925 238.862,102.719 238.261,109.000 237.584 C 112.264 237.231,118.342 237.398,123.256 237.974 " stroke="none" fill="#fad89b" fill-rule="evenodd"></path></g></svg>